<?xml version="1.0" encoding="utf-8"?>
<!-- Generator: Adobe Illustrator 19.0.0, SVG Export Plug-In . SVG Version: 6.00 Build 0)  -->
<svg version="1.1" id="Layer_1" xmlns="http://www.w3.org/2000/svg" xmlns:xlink="http://www.w3.org/1999/xlink" x="0px" y="0px"
	 viewBox="-951 1403 40 40" style="enable-background:new -951 1403 40 40;" xml:space="preserve">
<style type="text/css">
	.st0{fill:#29B1B1;}
</style>
<g>
	<path class="st0" d="M-935.6,1412.9c1.2-1,2.7-1.6,4.7-1.6c1.9,0,3.4,0.5,4.6,1.4c1.2,0.9,1.7,2.3,1.7,4c0,0.9-0.1,1.6-0.4,2.3
		c-0.3,0.6-0.6,1.2-0.9,1.6c-0.4,0.4-0.9,1-1.5,1.6c-0.9,0.8-1.5,1.6-2,2.2c-0.4,0.7-0.6,1.5-0.6,2.6h-2.1c0-0.9,0.1-1.7,0.4-2.4
		c0.2-0.7,0.6-1.2,0.9-1.6c0.4-0.4,0.8-0.9,1.4-1.5c0.5-0.5,0.9-1,1.2-1.3c0.3-0.4,0.5-0.8,0.8-1.3c0.2-0.5,0.3-1.1,0.3-1.8
		c0-1.1-0.4-2-1.1-2.6c-0.7-0.6-1.8-0.9-3-0.9c-1.3,0-2.3,0.3-3,0.9c-0.7,0.6-1.1,1.6-1.2,2.8l-2.1-0.1
		C-937.4,1415.4-936.7,1413.9-935.6,1412.9z M-929.9,1431.7c0.3,0.3,0.5,0.8,0.5,1.2c0,0.5-0.2,0.9-0.5,1.2
		c-0.3,0.3-0.7,0.5-1.2,0.5c-0.4,0-0.8-0.2-1.1-0.5c-0.3-0.3-0.5-0.7-0.5-1.2c0-0.5,0.2-0.9,0.5-1.2c0.3-0.3,0.7-0.5,1.1-0.5
		C-930.6,1431.2-930.2,1431.4-929.9,1431.7z"/>
</g>
</svg>
