<?xml version="1.0" encoding="utf-8"?>
<!-- Generator: Adobe Illustrator 19.0.0, SVG Export Plug-In . SVG Version: 6.00 Build 0)  -->
<svg version="1.1" id="Layer_1" xmlns="http://www.w3.org/2000/svg" xmlns:xlink="http://www.w3.org/1999/xlink" x="0px" y="0px"
	 viewBox="-913 1443 92 40" style="enable-background:new -913 1443 92 40;" xml:space="preserve">
<title>Google Logo</title>
<g>
	<path d="M-881.6,1457.3c-4.2,0-7.6,3.1-7.6,7.5c0,4.4,3.4,7.5,7.6,7.5s7.6-3.2,7.6-7.5C-874,1460.5-877.4,1457.3-881.6,1457.3
		L-881.6,1457.3z M-881.6,1469.3c-2.3,0-4.2-1.9-4.2-4.5c0-2.7,1.9-4.5,4.2-4.5c2.3,0,4.2,1.9,4.2,4.5
		C-877.4,1467.5-879.4,1469.3-881.6,1469.3L-881.6,1469.3z M-865.2,1457.3c-4.2,0-7.6,3.1-7.6,7.5c0,4.4,3.4,7.5,7.6,7.5
		c4.2,0,7.6-3.2,7.6-7.5C-857.7,1460.5-861.1,1457.3-865.2,1457.3L-865.2,1457.3z M-865.2,1469.3c-2.3,0-4.2-1.9-4.2-4.5
		c0-2.7,1.9-4.5,4.2-4.5s4.2,1.9,4.2,4.5C-861,1467.5-862.9,1469.3-865.2,1469.3L-865.2,1469.3z M-890.3,1461.6
		c0,2.4-0.6,5.4-2.7,7.5c-2,2.1-4.7,3.3-8.1,3.3c-6.5,0-11.9-5.2-11.9-11.7c0-6.5,5.4-11.7,11.9-11.7c3.5,0,6.1,1.4,8.1,3.2
		l-2.3,2.3c-1.4-1.3-3.2-2.3-5.8-2.3c-4.7,0-8.4,3.8-8.4,8.5c0,4.7,3.7,8.5,8.4,8.5c3.1,0,4.8-1.2,5.9-2.3c1-1,1.5-2.3,1.8-4.1h-7.7
		v-3.2h10.7C-890.3,1460.2-890.3,1460.9-890.3,1461.6 M-827.6,1469.2c-1.7,0-2.8-0.6-3.6-2.2l10-4.1l-0.3-0.9
		c-0.6-1.7-2.6-4.8-6.5-4.8c-3.9,0-7.1,3.1-7.1,7.5c0,4.2,3.2,7.5,7.5,7.5c3.5,0,5.5-2.1,6.3-3.3l-2.6-1.7
		C-824.7,1468.5-826.2,1469.2-827.6,1469.2L-827.6,1469.2z M-827.8,1460.2c1.3,0,2.4,0.6,2.8,1.5l-6.7,2.7
		C-831.8,1461.7-829.5,1460.2-827.8,1460.2z M-839.9,1449.7h3.3v22.1h-3.3V1449.7L-839.9,1449.7z M-845.1,1457.7v1.2h-0.1
		c-0.7-0.9-2.2-1.7-4-1.7c-3.8,0-7.3,3.3-7.3,7.6c0,4.2,3.5,7.5,7.3,7.5c1.8,0,3.2-0.8,4-1.7h0.1v1c0,2.9-1.5,4.4-4,4.4
		c-2,0-3.3-1.4-3.8-2.7l-2.9,1.2c0.8,2,3.1,4.4,6.7,4.4c3.9,0,7.2-2.3,7.2-7.8v-13.5L-845.1,1457.7L-845.1,1457.7z M-848.9,1469.3
		c-2.3,0-4.2-1.9-4.2-4.5c0-2.7,1.9-4.6,4.2-4.6c2.3,0,4,1.9,4,4.6C-844.9,1467.5-846.6,1469.3-848.9,1469.3L-848.9,1469.3z"/>
</g>
</svg>
